<svg viewBox="0 0 134 94" xmlns="http://www.w3.org/2000/svg">
  <path d="M52,17 L48,18 L45,19 L44,20 L42,21 L40,22 L40,23 L39,24 L38,25 L37,26 L36,27 L35,28 L35,29 L35,30 L34,31 L34,32 L34,33 L34,34 L33,35 L33,36 L33,37 L34,38 L34,39 L34,40 L34,41 L35,42 L36,43 L36,44 L37,45 L39,46 L40,47 L43,48 L46,49 L50,50 L53,51 L57,52 L58,53 L59,54 L59,55 L59,56 L59,57 L59,58 L58,59 L57,60 L56,61 L53,62 L25,63 L24,64 L23,65 L22,66 L21,67 L20,68 L18,69 L18,70 L16,71 L15,72 L15,73 L17,74 L49,74 L53,73 L57,72 L59,71 L61,70 L62,69 L63,68 L65,67 L66,66 L66,65 L67,64 L68,63 L68,62 L69,61 L69,60 L70,59 L70,58 L70,57 L71,56 L71,55 L71,54 L71,53 L71,52 L71,51 L70,50 L70,49 L70,48 L69,47 L68,46 L67,45 L66,44 L64,43 L61,42 L59,41 L55,40 L52,39 L48,38 L47,37 L46,36 L45,35 L45,34 L45,33 L45,32 L46,31 L47,30 L48,29 L51,28 L110,27 L111,26 L112,25 L113,24 L115,23 L116,22 L117,21 L118,20 L118,19 L119,18 L119,17 Z" fill="#FF6464"/>
  <path d="M88,37 L85,38 L84,39 L84,40 L84,41 L83,42 L83,43 L83,44 L83,45 L83,46 L82,47 L82,48 L82,49 L82,50 L81,51 L81,52 L81,53 L80,54 L80,55 L80,56 L80,57 L79,58 L79,59 L79,60 L78,61 L78,62 L78,63 L78,64 L77,65 L77,66 L77,67 L77,68 L76,69 L76,70 L76,71 L76,72 L75,73 L75,73 L77,72 L78,71 L80,70 L82,69 L85,68 L87,67 L88,66 L89,65 L89,64 L90,63 L90,62 L90,61 L90,60 L90,59 L91,58 L91,57 L91,56 L91,55 L92,54 L92,53 L92,52 L92,51 L93,50 L93,49 L93,48 L93,47 L94,46 L94,45 L94,44 L94,43 L95,42 L95,41 L95,40 L95,39 L95,38 L93,37 Z" fill="#FF6464"/>
</svg>